# xmcd
#
# Track frame offsets: 
#        150
#        27572
#        50705
#        74102
#        96263
#        115566
#        135385
#        155789
#        176320
#        196649
#
# Disc length: 2938 seconds
#
# Revision: 1
# Processed by: cddbd v1.5.2PL0 Copyright (c) Steve Scherf et al.
# Submitted via: ExactAudioCopy v0.99pb5
#
DISCID=890b780a
DTITLE=Glenn - Electronic Secret
DYEAR=2008
DGENRE=Electronic
TTITLE0=Electronic Secret (Part 01)
TTITLE1=Electronic Secret (Part 02)
TTITLE2=Electronic Secret (Part 03)
TTITLE3=Electronic Secret (Part 04)
TTITLE4=Electronic Secret (Part 05)
TTITLE5=Electronic Secret (Part 06)
TTITLE6=Electronic Secret (Part 07)
TTITLE7=Electronic Secret (Part 08)
TTITLE8=Electronic Secret (Part 09)
TTITLE9=Electronic Secret (Part 10)
EXTD=
EXTT0=
EXTT1=
EXTT2=
EXTT3=
EXTT4=
EXTT5=
EXTT6=
EXTT7=
EXTT8=
EXTT9=
PLAYORDER=
